<svg xmlns="http://www.w3.org/2000/svg" xmlns:xlink="http://www.w3.org/1999/xlink" width="300" zoomAndPan="magnify" viewBox="0 0 224.87999 187.499995" height="250" preserveAspectRatio="xMidYMid meet" version="1.0"><defs><clipPath id="ca1beecd5e"><path d="M 40.554688 28.355469 L 184.171875 28.355469 L 184.171875 158.507812 L 40.554688 158.507812 Z M 40.554688 28.355469 " clip-rule="nonzero"/></clipPath></defs><path fill="#6d4680" d="M 74.40625 124.539062 C 56.128906 118.542969 44.113281 99.734375 40.714844 83.03125 C 34.945312 54.699219 52.128906 23.386719 72.058594 18.816406 C 84.75 15.90625 87.585938 26.363281 111.234375 29.78125 C 137.226562 33.535156 144.394531 22.4375 163.734375 29 C 177.667969 33.726562 193.535156 46.128906 192.730469 57.972656 C 191.582031 74.832031 194.945312 87.492188 206.832031 103.394531 C 215.113281 114.46875 208.753906 132.929688 202.914062 142.546875 C 193.640625 157.828125 173.578125 170.742188 160.601562 165.257812 C 144.460938 158.4375 153.75 129.25 136.3125 119.054688 C 118.78125 108.808594 100.488281 133.089844 74.40625 124.539062 Z M 74.40625 124.539062 " fill-opacity="1" fill-rule="nonzero"/><path fill="#d98bff" d="M 162.394531 59.597656 C 148.71875 47.929688 126.429688 40.375 110.09375 47.984375 C 97.796875 53.714844 96.65625 64.425781 86.851562 64.761719 C 76.886719 65.105469 74.300781 54.175781 58.441406 45.402344 C 48.851562 40.101562 29.445312 32.839844 20.347656 40.242188 C 9.421875 49.132812 12.476562 79.917969 28.742188 93.152344 C 47.609375 108.507812 72.0625 90.332031 88.789062 106.058594 C 102.464844 118.917969 92.351562 136.933594 106.222656 146.710938 C 123.710938 159.039062 154.585938 140.824219 156.585938 139.613281 C 163.8125 135.238281 177.21875 127.125 181.765625 111.222656 C 187.675781 90.539062 174.757812 70.148438 162.394531 59.597656 Z M 162.394531 59.597656 " fill-opacity="1" fill-rule="nonzero"/><path fill="#a873c2" d="M 155.671875 74.007812 C 155.554688 70.902344 154.621094 67.773438 152.695312 65.300781 C 150.53125 62.519531 147.28125 61.058594 143.800781 60.800781 C 139.515625 60.488281 135.285156 61.734375 131.089844 62.394531 C 128.894531 62.738281 126.648438 62.945312 124.425781 62.703125 C 122.128906 62.449219 119.898438 61.738281 117.804688 60.769531 C 109.722656 57.019531 103.804688 49.761719 95.464844 46.472656 C 92.03125 45.121094 88.316406 44.671875 84.691406 45.503906 C 81.449219 46.246094 78.378906 48.085938 76.707031 51.03125 C 74.652344 54.648438 75.109375 58.972656 76.535156 62.722656 C 78.085938 66.789062 80.730469 70.195312 83.1875 73.738281 C 85.480469 77.039062 87.65625 80.585938 88.253906 84.625 C 86.351562 81.625 82.921875 80.015625 79.476562 79.53125 C 74.777344 78.871094 70.101562 80.25 65.519531 81.085938 C 55.96875 82.832031 46.039062 82.441406 36.648438 79.992188 C 34.324219 79.386719 32.058594 78.621094 29.792969 77.816406 C 27.632812 77.050781 25.414062 76.304688 23.105469 76.1875 C 19.21875 75.984375 16.007812 78.078125 14.300781 81.507812 C 11.074219 88.003906 13.015625 96.125 16.96875 101.84375 C 21.125 107.863281 27.792969 112.019531 35.152344 112.476562 C 43.75 113.011719 51.902344 109.464844 60.398438 108.925781 C 64.519531 108.660156 68.683594 109.242188 72.300781 111.332031 C 75.816406 113.363281 78.53125 116.527344 80.570312 119.992188 C 85.359375 128.140625 86.214844 137.777344 89.605469 146.472656 C 92.386719 153.617188 97.355469 160.691406 105.152344 162.75 C 113.558594 164.96875 122.195312 161.183594 128.1875 155.351562 C 131.203125 152.421875 133.796875 148.960938 135.871094 145.304688 C 137.863281 141.789062 139.417969 137.804688 139.515625 133.71875 C 139.609375 129.835938 138.101562 126.222656 135.105469 123.714844 C 132.054688 121.164062 128.234375 119.90625 124.707031 118.1875 C 121.316406 116.535156 117.601562 114.027344 116.421875 110.238281 C 115.132812 106.097656 117.703125 102.113281 121.070312 99.863281 C 124.894531 97.304688 129.636719 96.738281 134 95.636719 C 137.851562 94.667969 141.644531 93.273438 145.066406 91.234375 C 148.375 89.261719 151.328125 86.628906 153.335938 83.3125 C 155.015625 80.539062 155.789062 77.242188 155.671875 74.007812 Z M 151.589844 84.742188 C 146.625 91.246094 138.535156 93.992188 130.855469 95.714844 C 126.804688 96.628906 122.554688 97.613281 119.324219 100.394531 C 116.589844 102.746094 114.773438 106.296875 115.671875 109.941406 C 116.53125 113.417969 119.492188 115.953125 122.457031 117.707031 C 125.765625 119.660156 129.5 120.769531 132.765625 122.8125 C 134.464844 123.878906 136.015625 125.207031 137.105469 126.910156 C 138.183594 128.601562 138.75 130.554688 138.859375 132.546875 C 139.085938 136.6875 137.59375 140.804688 135.644531 144.394531 C 131.730469 151.613281 125.609375 158.554688 117.699219 161.382812 C 113.648438 162.828125 109.152344 163.230469 104.988281 162.042969 C 101.152344 160.953125 97.914062 158.507812 95.40625 155.453125 C 89.722656 148.535156 88.15625 139.527344 85.75 131.160156 C 83.597656 123.671875 80.296875 115.777344 73.515625 111.332031 C 66.601562 106.800781 58.296875 108.21875 50.699219 109.839844 C 46.574219 110.71875 42.425781 111.683594 38.195312 111.863281 C 34.355469 112.027344 30.582031 111.421875 27.101562 109.753906 C 20.570312 106.625 15.507812 100.445312 13.882812 93.375 C 13.078125 89.875 13.101562 86.09375 14.449219 82.726562 C 15.128906 81.035156 16.183594 79.433594 17.660156 78.339844 C 19.378906 77.070312 21.492188 76.667969 23.59375 76.863281 C 25.921875 77.078125 28.15625 77.910156 30.34375 78.691406 C 32.566406 79.484375 34.8125 80.195312 37.101562 80.769531 C 41.550781 81.882812 46.117188 82.542969 50.703125 82.738281 C 55.285156 82.9375 59.890625 82.664062 64.417969 81.925781 C 69.125 81.160156 73.859375 79.625 78.679688 80.078125 C 82.3125 80.417969 86.054688 82.042969 87.925781 85.316406 C 88.0625 85.550781 88.347656 85.492188 88.46875 85.324219 C 88.667969 85.449219 88.988281 85.371094 88.953125 85.078125 C 87.957031 76.582031 80.703125 70.9375 77.488281 63.386719 C 75.851562 59.542969 75.113281 54.964844 77.351562 51.195312 C 79.132812 48.1875 82.429688 46.5 85.792969 45.933594 C 94.28125 44.507812 101.480469 50.246094 107.792969 55.070312 C 111.183594 57.660156 114.675781 60.195312 118.644531 61.832031 C 120.605469 62.636719 122.667969 63.191406 124.78125 63.378906 C 126.828125 63.554688 128.886719 63.367188 130.910156 63.0625 C 135.070312 62.441406 139.222656 61.195312 143.46875 61.421875 C 147.140625 61.613281 150.546875 63.21875 152.636719 66.296875 C 156.40625 71.851562 155.550781 79.558594 151.589844 84.742188 Z M 151.589844 84.742188 " fill-opacity="1" fill-rule="nonzero"/><path fill="#353650" d="M 42.800781 30.601562 L 181.929688 30.601562 L 181.929688 129.335938 L 42.800781 129.335938 Z M 42.800781 30.601562 " fill-opacity="1" fill-rule="nonzero"/><path fill="#f6f6f6" d="M 42.800781 115.871094 L 181.929688 115.871094 L 181.929688 129.335938 L 42.800781 129.335938 Z M 42.800781 115.871094 " fill-opacity="1" fill-rule="nonzero"/><path fill="#cdcdcd" d="M 42.800781 115.871094 L 181.929688 115.871094 L 181.929688 120.359375 L 42.800781 120.359375 Z M 42.800781 115.871094 " fill-opacity="1" fill-rule="nonzero"/><path fill="#cdcdcd" d="M 134.804688 147.289062 L 89.925781 147.289062 L 94.414062 129.335938 L 130.316406 129.335938 Z M 134.804688 147.289062 " fill-opacity="1" fill-rule="nonzero"/><path fill="#454668" d="M 83.191406 147.289062 L 141.535156 147.289062 C 141.835938 147.289062 142.121094 147.34375 142.394531 147.457031 C 142.671875 147.574219 142.914062 147.734375 143.125 147.945312 C 143.332031 148.15625 143.496094 148.398438 143.609375 148.671875 C 143.722656 148.949219 143.78125 149.234375 143.78125 149.53125 L 143.78125 154.019531 C 143.78125 154.316406 143.722656 154.605469 143.609375 154.878906 C 143.496094 155.152344 143.332031 155.394531 143.125 155.605469 C 142.914062 155.816406 142.671875 155.980469 142.394531 156.09375 C 142.121094 156.207031 141.835938 156.265625 141.535156 156.265625 L 83.191406 156.265625 C 82.894531 156.265625 82.609375 156.207031 82.332031 156.09375 C 82.058594 155.980469 81.816406 155.816406 81.605469 155.605469 C 81.394531 155.394531 81.234375 155.152344 81.117188 154.878906 C 81.003906 154.605469 80.949219 154.316406 80.949219 154.019531 L 80.949219 149.53125 C 80.949219 149.234375 81.003906 148.949219 81.117188 148.671875 C 81.234375 148.398438 81.394531 148.15625 81.605469 147.945312 C 81.816406 147.734375 82.058594 147.574219 82.332031 147.457031 C 82.609375 147.34375 82.894531 147.289062 83.191406 147.289062 Z M 83.191406 147.289062 " fill-opacity="1" fill-rule="nonzero"/><path fill="#999999" d="M 130.316406 129.335938 L 94.414062 129.335938 L 93.289062 133.824219 L 131.4375 133.824219 Z M 130.316406 129.335938 " fill-opacity="1" fill-rule="nonzero"/><path fill="#ffffff" d="M 172.953125 44.066406 L 172.953125 75.480469 C 172.953125 75.773438 172.921875 76.066406 172.863281 76.355469 C 172.804688 76.644531 172.722656 76.925781 172.609375 77.195312 C 172.496094 77.46875 172.355469 77.726562 172.191406 77.96875 C 172.027344 78.214844 171.84375 78.441406 171.632812 78.648438 C 171.425781 78.859375 171.199219 79.042969 170.957031 79.207031 C 170.710938 79.371094 170.453125 79.511719 170.179688 79.625 C 169.910156 79.734375 169.628906 79.820312 169.339844 79.878906 C 169.050781 79.9375 168.757812 79.96875 168.464844 79.96875 L 110.121094 79.96875 C 109.824219 79.96875 109.535156 79.9375 109.246094 79.878906 C 108.957031 79.820312 108.675781 79.734375 108.40625 79.625 C 108.132812 79.511719 107.875 79.371094 107.628906 79.207031 C 107.386719 79.042969 107.160156 78.859375 106.949219 78.648438 C 106.742188 78.441406 106.558594 78.214844 106.394531 77.96875 C 106.230469 77.726562 106.089844 77.46875 105.976562 77.195312 C 105.863281 76.925781 105.777344 76.644531 105.722656 76.355469 C 105.664062 76.066406 105.632812 75.773438 105.632812 75.480469 L 105.632812 44.066406 C 105.632812 43.769531 105.664062 43.476562 105.722656 43.191406 C 105.777344 42.902344 105.863281 42.621094 105.976562 42.347656 C 106.089844 42.078125 106.230469 41.820312 106.394531 41.574219 C 106.558594 41.328125 106.742188 41.101562 106.949219 40.894531 C 107.160156 40.6875 107.386719 40.5 107.628906 40.335938 C 107.875 40.171875 108.132812 40.035156 108.40625 39.921875 C 108.675781 39.808594 108.957031 39.722656 109.246094 39.664062 C 109.535156 39.605469 109.824219 39.578125 110.121094 39.578125 L 168.464844 39.578125 C 168.757812 39.578125 169.050781 39.605469 169.339844 39.664062 C 169.628906 39.722656 169.910156 39.808594 170.179688 39.921875 C 170.453125 40.035156 170.710938 40.171875 170.957031 40.335938 C 171.199219 40.5 171.425781 40.6875 171.632812 40.894531 C 171.84375 41.101562 172.027344 41.328125 172.191406 41.574219 C 172.355469 41.820312 172.496094 42.078125 172.609375 42.347656 C 172.722656 42.621094 172.804688 42.902344 172.863281 43.191406 C 172.921875 43.476562 172.953125 43.769531 172.953125 44.066406 Z M 132.5625 66.503906 L 146.023438 59.773438 L 132.5625 53.039062 Z M 132.5625 66.503906 " fill-opacity="1" fill-rule="nonzero"/><path fill="#cdcdcd" d="M 168.464844 39.578125 L 159.488281 39.578125 C 159.785156 39.578125 160.074219 39.605469 160.363281 39.664062 C 160.652344 39.722656 160.933594 39.808594 161.203125 39.921875 C 161.476562 40.035156 161.734375 40.171875 161.980469 40.335938 C 162.222656 40.5 162.449219 40.6875 162.660156 40.894531 C 162.867188 41.101562 163.050781 41.328125 163.214844 41.574219 C 163.378906 41.820312 163.519531 42.078125 163.632812 42.347656 C 163.746094 42.621094 163.832031 42.902344 163.886719 43.191406 C 163.945312 43.476562 163.976562 43.769531 163.976562 44.066406 L 163.976562 75.480469 C 163.976562 75.773438 163.945312 76.066406 163.886719 76.355469 C 163.832031 76.644531 163.746094 76.925781 163.632812 77.195312 C 163.519531 77.46875 163.378906 77.726562 163.214844 77.96875 C 163.050781 78.214844 162.867188 78.441406 162.660156 78.648438 C 162.449219 78.859375 162.222656 79.042969 161.980469 79.207031 C 161.734375 79.371094 161.476562 79.511719 161.203125 79.625 C 160.933594 79.734375 160.652344 79.820312 160.363281 79.878906 C 160.074219 79.9375 159.785156 79.96875 159.488281 79.96875 L 168.464844 79.96875 C 168.757812 79.96875 169.050781 79.9375 169.339844 79.878906 C 169.628906 79.820312 169.910156 79.734375 170.179688 79.625 C 170.453125 79.511719 170.710938 79.371094 170.957031 79.207031 C 171.199219 79.042969 171.425781 78.859375 171.632812 78.648438 C 171.84375 78.441406 172.027344 78.214844 172.191406 77.96875 C 172.355469 77.726562 172.496094 77.46875 172.609375 77.195312 C 172.722656 76.925781 172.804688 76.644531 172.863281 76.355469 C 172.921875 76.066406 172.953125 75.773438 172.953125 75.480469 L 172.953125 44.066406 C 172.953125 43.769531 172.921875 43.476562 172.863281 43.191406 C 172.804688 42.902344 172.722656 42.621094 172.609375 42.347656 C 172.496094 42.078125 172.355469 41.820312 172.191406 41.574219 C 172.027344 41.328125 171.84375 41.101562 171.632812 40.894531 C 171.425781 40.6875 171.199219 40.5 170.957031 40.335938 C 170.710938 40.171875 170.453125 40.035156 170.179688 39.921875 C 169.910156 39.808594 169.628906 39.722656 169.339844 39.664062 C 169.050781 39.605469 168.757812 39.578125 168.464844 39.578125 Z M 168.464844 39.578125 " fill-opacity="1" fill-rule="nonzero"/><path fill="#fc5452" d="M 146.023438 59.773438 L 132.5625 66.503906 L 132.5625 53.039062 Z M 146.023438 59.773438 " fill-opacity="1" fill-rule="nonzero"/><path fill="#8687c9" d="M 78.703125 66.503906 L 92.167969 66.503906 L 92.167969 79.96875 L 78.703125 79.96875 Z M 78.703125 66.503906 " fill-opacity="1" fill-rule="nonzero"/><path fill="#626393" d="M 78.703125 39.578125 L 92.167969 39.578125 L 92.167969 53.039062 L 78.703125 53.039062 Z M 78.703125 39.578125 " fill-opacity="1" fill-rule="nonzero"/><path fill="#626393" d="M 54.019531 66.503906 L 67.484375 66.503906 L 67.484375 79.96875 L 54.019531 79.96875 Z M 54.019531 66.503906 " fill-opacity="1" fill-rule="nonzero"/><path fill="#8687c9" d="M 54.019531 39.578125 L 67.484375 39.578125 L 67.484375 53.039062 L 54.019531 53.039062 Z M 54.019531 39.578125 " fill-opacity="1" fill-rule="nonzero"/><path fill="#626393" d="M 87.679688 66.503906 L 92.167969 66.503906 L 92.167969 79.96875 L 87.679688 79.96875 Z M 87.679688 66.503906 " fill-opacity="1" fill-rule="nonzero"/><path fill="#454668" d="M 87.679688 39.578125 L 92.167969 39.578125 L 92.167969 53.039062 L 87.679688 53.039062 Z M 87.679688 39.578125 " fill-opacity="1" fill-rule="nonzero"/><path fill="#454668" d="M 62.996094 66.503906 L 67.484375 66.503906 L 67.484375 79.96875 L 62.996094 79.96875 Z M 62.996094 66.503906 " fill-opacity="1" fill-rule="nonzero"/><path fill="#626393" d="M 62.996094 39.578125 L 67.484375 39.578125 L 67.484375 53.039062 L 62.996094 53.039062 Z M 62.996094 39.578125 " fill-opacity="1" fill-rule="nonzero"/><path fill="#8687c9" d="M 42.800781 88.945312 L 69.726562 88.945312 L 69.726562 102.410156 L 42.800781 102.410156 Z M 42.800781 88.945312 " fill-opacity="1" fill-rule="nonzero"/><path fill="#626393" d="M 42.800781 102.410156 L 69.726562 102.410156 L 69.726562 115.871094 L 42.800781 115.871094 Z M 42.800781 102.410156 " fill-opacity="1" fill-rule="nonzero"/><path fill="#fe7073" d="M 69.726562 88.945312 L 181.929688 88.945312 L 181.929688 102.410156 L 69.726562 102.410156 Z M 69.726562 88.945312 " fill-opacity="1" fill-rule="nonzero"/><path fill="#fc959a" d="M 69.726562 88.945312 L 181.929688 88.945312 L 181.929688 95.675781 L 69.726562 95.675781 Z M 69.726562 88.945312 " fill-opacity="1" fill-rule="nonzero"/><path fill="#ff3836" d="M 69.726562 102.410156 L 181.929688 102.410156 L 181.929688 115.871094 L 69.726562 115.871094 Z M 69.726562 102.410156 " fill-opacity="1" fill-rule="nonzero"/><path fill="#fc5452" d="M 69.726562 102.410156 L 181.929688 102.410156 L 181.929688 109.140625 L 69.726562 109.140625 Z M 69.726562 102.410156 " fill-opacity="1" fill-rule="nonzero"/><g clip-path="url(#ca1beecd5e)"><path fill="#252340" d="M 181.929688 28.355469 L 42.800781 28.355469 C 42.503906 28.355469 42.214844 28.414062 41.941406 28.527344 C 41.667969 28.640625 41.421875 28.804688 41.214844 29.015625 C 41.003906 29.222656 40.839844 29.46875 40.726562 29.742188 C 40.613281 30.015625 40.554688 30.304688 40.554688 30.601562 L 40.554688 129.335938 C 40.554688 129.632812 40.613281 129.917969 40.726562 130.195312 C 40.839844 130.46875 41.003906 130.710938 41.214844 130.921875 C 41.421875 131.132812 41.667969 131.296875 41.941406 131.410156 C 42.214844 131.523438 42.503906 131.582031 42.800781 131.582031 L 91.539062 131.582031 L 88.171875 145.042969 L 83.191406 145.042969 C 82.898438 145.042969 82.605469 145.074219 82.316406 145.128906 C 82.027344 145.1875 81.746094 145.273438 81.476562 145.386719 C 81.203125 145.5 80.945312 145.636719 80.699219 145.800781 C 80.453125 145.964844 80.226562 146.148438 80.019531 146.359375 C 79.808594 146.566406 79.625 146.792969 79.460938 147.039062 C 79.296875 147.285156 79.160156 147.542969 79.046875 147.816406 C 78.933594 148.085938 78.847656 148.367188 78.789062 148.65625 C 78.734375 148.945312 78.703125 149.238281 78.703125 149.53125 L 78.703125 154.019531 C 78.703125 154.316406 78.734375 154.605469 78.789062 154.894531 C 78.847656 155.183594 78.933594 155.464844 79.046875 155.738281 C 79.160156 156.007812 79.296875 156.269531 79.460938 156.511719 C 79.625 156.757812 79.808594 156.984375 80.019531 157.195312 C 80.226562 157.402344 80.453125 157.589844 80.699219 157.75 C 80.945312 157.914062 81.203125 158.054688 81.476562 158.167969 C 81.746094 158.277344 82.027344 158.363281 82.316406 158.421875 C 82.605469 158.480469 82.898438 158.507812 83.191406 158.507812 L 141.535156 158.507812 C 141.832031 158.507812 142.125 158.480469 142.414062 158.421875 C 142.703125 158.363281 142.980469 158.277344 143.253906 158.167969 C 143.527344 158.054688 143.785156 157.914062 144.03125 157.75 C 144.273438 157.589844 144.5 157.402344 144.710938 157.195312 C 144.917969 156.984375 145.105469 156.757812 145.269531 156.511719 C 145.433594 156.269531 145.570312 156.007812 145.683594 155.738281 C 145.796875 155.464844 145.882812 155.183594 145.9375 154.894531 C 145.996094 154.605469 146.023438 154.316406 146.023438 154.019531 L 146.023438 149.53125 C 146.023438 149.238281 145.996094 148.945312 145.9375 148.65625 C 145.882812 148.367188 145.796875 148.085938 145.683594 147.816406 C 145.570312 147.542969 145.433594 147.285156 145.269531 147.039062 C 145.105469 146.792969 144.917969 146.566406 144.710938 146.359375 C 144.5 146.148438 144.273438 145.964844 144.03125 145.800781 C 143.785156 145.636719 143.527344 145.5 143.253906 145.386719 C 142.980469 145.273438 142.703125 145.1875 142.414062 145.128906 C 142.125 145.074219 141.832031 145.042969 141.535156 145.042969 L 136.558594 145.042969 L 133.191406 131.582031 L 181.929688 131.582031 C 182.226562 131.582031 182.511719 131.523438 182.789062 131.410156 C 183.0625 131.296875 183.304688 131.132812 183.515625 130.921875 C 183.726562 130.710938 183.886719 130.46875 184.003906 130.195312 C 184.117188 129.917969 184.171875 129.632812 184.171875 129.335938 L 184.171875 30.601562 C 184.171875 30.304688 184.117188 30.015625 184.003906 29.742188 C 183.886719 29.46875 183.726562 29.222656 183.515625 29.015625 C 183.304688 28.804688 183.0625 28.640625 182.789062 28.527344 C 182.511719 28.414062 182.226562 28.355469 181.929688 28.355469 Z M 179.683594 32.84375 L 179.683594 86.699219 L 45.042969 86.699219 L 45.042969 32.84375 Z M 67.484375 104.652344 L 67.484375 113.628906 L 45.042969 113.628906 L 45.042969 104.652344 Z M 45.042969 100.164062 L 45.042969 91.1875 L 67.484375 91.1875 L 67.484375 100.164062 Z M 71.972656 104.652344 L 89.925781 104.652344 L 89.925781 109.140625 L 94.414062 109.140625 L 94.414062 104.652344 L 112.363281 104.652344 L 112.363281 109.140625 L 116.851562 109.140625 L 116.851562 104.652344 L 134.804688 104.652344 L 134.804688 109.140625 L 139.292969 109.140625 L 139.292969 104.652344 L 157.246094 104.652344 L 157.246094 109.140625 L 161.734375 109.140625 L 161.734375 104.652344 L 179.683594 104.652344 L 179.683594 113.628906 L 71.972656 113.628906 Z M 161.734375 100.164062 L 161.734375 95.675781 L 157.246094 95.675781 L 157.246094 100.164062 L 139.292969 100.164062 L 139.292969 95.675781 L 134.804688 95.675781 L 134.804688 100.164062 L 116.851562 100.164062 L 116.851562 95.675781 L 112.363281 95.675781 L 112.363281 100.164062 L 94.414062 100.164062 L 94.414062 95.675781 L 89.925781 95.675781 L 89.925781 100.164062 L 71.972656 100.164062 L 71.972656 91.1875 L 179.683594 91.1875 L 179.683594 100.164062 Z M 141.535156 154.019531 L 83.191406 154.019531 L 83.191406 149.53125 L 141.535156 149.53125 Z M 92.800781 145.042969 L 96.164062 131.582031 L 128.5625 131.582031 L 131.929688 145.042969 Z M 130.316406 127.09375 L 45.042969 127.09375 L 45.042969 118.117188 L 179.683594 118.117188 L 179.683594 127.09375 Z M 130.316406 127.09375 " fill-opacity="1" fill-rule="nonzero"/></g><path fill="#252340" d="M 110.121094 82.210938 L 168.464844 82.210938 C 168.90625 82.210938 169.34375 82.167969 169.777344 82.082031 C 170.210938 81.996094 170.632812 81.867188 171.042969 81.699219 C 171.449219 81.53125 171.835938 81.324219 172.203125 81.078125 C 172.574219 80.832031 172.914062 80.554688 173.226562 80.242188 C 173.539062 79.929688 173.816406 79.589844 174.0625 79.21875 C 174.308594 78.851562 174.515625 78.464844 174.683594 78.054688 C 174.855469 77.648438 174.980469 77.226562 175.066406 76.792969 C 175.152344 76.359375 175.195312 75.921875 175.195312 75.480469 L 175.195312 44.066406 C 175.195312 43.621094 175.152344 43.183594 175.066406 42.75 C 174.980469 42.316406 174.855469 41.898438 174.683594 41.488281 C 174.515625 41.078125 174.308594 40.691406 174.0625 40.324219 C 173.816406 39.957031 173.539062 39.617188 173.226562 39.304688 C 172.914062 38.992188 172.574219 38.710938 172.203125 38.46875 C 171.835938 38.222656 171.449219 38.015625 171.042969 37.84375 C 170.632812 37.675781 170.210938 37.546875 169.777344 37.460938 C 169.34375 37.375 168.90625 37.332031 168.464844 37.332031 L 110.121094 37.332031 C 109.679688 37.332031 109.242188 37.375 108.808594 37.460938 C 108.375 37.546875 107.953125 37.675781 107.542969 37.84375 C 107.136719 38.015625 106.746094 38.222656 106.378906 38.46875 C 106.011719 38.710938 105.671875 38.992188 105.359375 39.304688 C 105.046875 39.617188 104.769531 39.957031 104.523438 40.324219 C 104.277344 40.691406 104.070312 41.078125 103.902344 41.488281 C 103.730469 41.898438 103.605469 42.316406 103.519531 42.75 C 103.429688 43.183594 103.386719 43.621094 103.386719 44.066406 L 103.386719 75.480469 C 103.386719 75.921875 103.429688 76.359375 103.519531 76.792969 C 103.605469 77.226562 103.730469 77.648438 103.902344 78.054688 C 104.070312 78.464844 104.277344 78.851562 104.523438 79.21875 C 104.769531 79.589844 105.046875 79.929688 105.359375 80.242188 C 105.671875 80.554688 106.011719 80.832031 106.378906 81.078125 C 106.746094 81.324219 107.136719 81.53125 107.542969 81.699219 C 107.953125 81.867188 108.375 81.996094 108.808594 82.082031 C 109.242188 82.167969 109.679688 82.210938 110.121094 82.210938 Z M 107.875 44.066406 C 107.875 43.765625 107.933594 43.480469 108.046875 43.207031 C 108.160156 42.929688 108.324219 42.6875 108.535156 42.476562 C 108.746094 42.265625 108.988281 42.105469 109.261719 41.992188 C 109.535156 41.878906 109.824219 41.820312 110.121094 41.820312 L 168.464844 41.820312 C 168.761719 41.820312 169.046875 41.878906 169.324219 41.992188 C 169.597656 42.105469 169.839844 42.265625 170.050781 42.476562 C 170.261719 42.6875 170.425781 42.929688 170.539062 43.207031 C 170.652344 43.480469 170.707031 43.765625 170.707031 44.066406 L 170.707031 75.480469 C 170.707031 75.777344 170.652344 76.0625 170.539062 76.339844 C 170.425781 76.613281 170.261719 76.855469 170.050781 77.066406 C 169.839844 77.277344 169.597656 77.441406 169.324219 77.554688 C 169.046875 77.667969 168.761719 77.722656 168.464844 77.722656 L 110.121094 77.722656 C 109.824219 77.722656 109.535156 77.667969 109.261719 77.554688 C 108.988281 77.441406 108.746094 77.277344 108.535156 77.066406 C 108.324219 76.855469 108.160156 76.613281 108.046875 76.339844 C 107.933594 76.0625 107.875 75.777344 107.875 75.480469 Z M 107.875 44.066406 " fill-opacity="1" fill-rule="nonzero"/><path fill="#252340" d="M 131.378906 68.414062 C 131.710938 68.617188 132.070312 68.730469 132.460938 68.746094 C 132.847656 68.765625 133.214844 68.6875 133.5625 68.511719 L 147.027344 61.78125 C 147.410156 61.589844 147.710938 61.316406 147.933594 60.953125 C 148.160156 60.589844 148.269531 60.199219 148.269531 59.773438 C 148.269531 59.347656 148.160156 58.953125 147.933594 58.589844 C 147.710938 58.230469 147.410156 57.953125 147.027344 57.765625 L 133.5625 51.03125 C 133.394531 50.945312 133.214844 50.882812 133.027344 50.84375 C 132.839844 50.804688 132.648438 50.789062 132.460938 50.796875 C 132.269531 50.804688 132.082031 50.839844 131.898438 50.894531 C 131.714844 50.953125 131.542969 51.03125 131.378906 51.132812 C 131.21875 51.230469 131.070312 51.351562 130.9375 51.488281 C 130.804688 51.628906 130.691406 51.78125 130.601562 51.949219 C 130.507812 52.113281 130.4375 52.289062 130.386719 52.476562 C 130.339844 52.660156 130.316406 52.847656 130.316406 53.039062 L 130.316406 66.503906 C 130.316406 66.894531 130.410156 67.257812 130.601562 67.597656 C 130.789062 67.9375 131.050781 68.210938 131.378906 68.414062 Z M 134.804688 56.671875 L 141.007812 59.773438 L 134.804688 62.875 Z M 134.804688 56.671875 " fill-opacity="1" fill-rule="nonzero"/><path fill="#252340" d="M 54.019531 55.285156 L 67.484375 55.285156 C 67.78125 55.285156 68.066406 55.226562 68.34375 55.113281 C 68.617188 55 68.859375 54.835938 69.070312 54.628906 C 69.28125 54.417969 69.445312 54.175781 69.558594 53.898438 C 69.671875 53.625 69.726562 53.339844 69.726562 53.039062 L 69.726562 39.578125 C 69.726562 39.277344 69.671875 38.992188 69.558594 38.71875 C 69.445312 38.441406 69.28125 38.199219 69.070312 37.988281 C 68.859375 37.78125 68.617188 37.617188 68.34375 37.503906 C 68.066406 37.390625 67.78125 37.332031 67.484375 37.332031 L 54.019531 37.332031 C 53.722656 37.332031 53.4375 37.390625 53.160156 37.503906 C 52.886719 37.617188 52.644531 37.78125 52.433594 37.988281 C 52.222656 38.199219 52.0625 38.441406 51.945312 38.71875 C 51.832031 38.992188 51.777344 39.277344 51.777344 39.578125 L 51.777344 53.039062 C 51.777344 53.339844 51.832031 53.625 51.945312 53.898438 C 52.0625 54.175781 52.222656 54.417969 52.433594 54.628906 C 52.644531 54.835938 52.886719 55 53.160156 55.113281 C 53.4375 55.226562 53.722656 55.285156 54.019531 55.285156 Z M 56.265625 41.820312 L 65.238281 41.820312 L 65.238281 50.796875 L 56.265625 50.796875 Z M 56.265625 41.820312 " fill-opacity="1" fill-rule="nonzero"/><path fill="#252340" d="M 78.703125 55.285156 L 92.167969 55.285156 C 92.464844 55.285156 92.753906 55.226562 93.027344 55.113281 C 93.300781 55 93.542969 54.835938 93.753906 54.628906 C 93.964844 54.417969 94.128906 54.175781 94.242188 53.898438 C 94.355469 53.625 94.414062 53.339844 94.414062 53.039062 L 94.414062 39.578125 C 94.414062 39.277344 94.355469 38.992188 94.242188 38.71875 C 94.128906 38.441406 93.964844 38.199219 93.753906 37.988281 C 93.542969 37.78125 93.300781 37.617188 93.027344 37.503906 C 92.753906 37.390625 92.464844 37.332031 92.167969 37.332031 L 78.703125 37.332031 C 78.40625 37.332031 78.121094 37.390625 77.84375 37.503906 C 77.570312 37.617188 77.328125 37.78125 77.117188 37.988281 C 76.90625 38.199219 76.746094 38.441406 76.632812 38.71875 C 76.515625 38.992188 76.460938 39.277344 76.460938 39.578125 L 76.460938 53.039062 C 76.460938 53.339844 76.515625 53.625 76.632812 53.898438 C 76.746094 54.175781 76.90625 54.417969 77.117188 54.628906 C 77.328125 54.835938 77.570312 55 77.84375 55.113281 C 78.121094 55.226562 78.40625 55.285156 78.703125 55.285156 Z M 80.949219 41.820312 L 89.925781 41.820312 L 89.925781 50.796875 L 80.949219 50.796875 Z M 80.949219 41.820312 " fill-opacity="1" fill-rule="nonzero"/><path fill="#252340" d="M 78.703125 82.210938 L 92.167969 82.210938 C 92.464844 82.210938 92.753906 82.15625 93.027344 82.042969 C 93.300781 81.925781 93.542969 81.765625 93.753906 81.554688 C 93.964844 81.34375 94.128906 81.101562 94.242188 80.828125 C 94.355469 80.550781 94.414062 80.265625 94.414062 79.96875 L 94.414062 66.503906 C 94.414062 66.207031 94.355469 65.921875 94.242188 65.644531 C 94.128906 65.371094 93.964844 65.128906 93.753906 64.917969 C 93.542969 64.707031 93.300781 64.546875 93.027344 64.429688 C 92.753906 64.316406 92.464844 64.261719 92.167969 64.261719 L 78.703125 64.261719 C 78.40625 64.261719 78.121094 64.316406 77.84375 64.429688 C 77.570312 64.546875 77.328125 64.707031 77.117188 64.917969 C 76.90625 65.128906 76.746094 65.371094 76.632812 65.644531 C 76.515625 65.921875 76.460938 66.207031 76.460938 66.503906 L 76.460938 79.96875 C 76.460938 80.265625 76.515625 80.550781 76.632812 80.828125 C 76.746094 81.101562 76.90625 81.34375 77.117188 81.554688 C 77.328125 81.765625 77.570312 81.925781 77.84375 82.042969 C 78.121094 82.15625 78.40625 82.210938 78.703125 82.210938 Z M 80.949219 68.75 L 89.925781 68.75 L 89.925781 77.722656 L 80.949219 77.722656 Z M 80.949219 68.75 " fill-opacity="1" fill-rule="nonzero"/><path fill="#252340" d="M 54.019531 82.210938 L 67.484375 82.210938 C 67.78125 82.210938 68.066406 82.15625 68.34375 82.042969 C 68.617188 81.925781 68.859375 81.765625 69.070312 81.554688 C 69.28125 81.34375 69.445312 81.101562 69.558594 80.828125 C 69.671875 80.550781 69.726562 80.265625 69.726562 79.96875 L 69.726562 66.503906 C 69.726562 66.207031 69.671875 65.921875 69.558594 65.644531 C 69.445312 65.371094 69.28125 65.128906 69.070312 64.917969 C 68.859375 64.707031 68.617188 64.546875 68.34375 64.429688 C 68.066406 64.316406 67.78125 64.261719 67.484375 64.261719 L 54.019531 64.261719 C 53.722656 64.261719 53.4375 64.316406 53.160156 64.429688 C 52.886719 64.546875 52.644531 64.707031 52.433594 64.917969 C 52.222656 65.128906 52.0625 65.371094 51.945312 65.644531 C 51.832031 65.921875 51.777344 66.207031 51.777344 66.503906 L 51.777344 79.96875 C 51.777344 80.265625 51.832031 80.550781 51.945312 80.828125 C 52.0625 81.101562 52.222656 81.34375 52.433594 81.554688 C 52.644531 81.765625 52.886719 81.925781 53.160156 82.042969 C 53.4375 82.15625 53.722656 82.210938 54.019531 82.210938 Z M 56.265625 68.75 L 65.238281 68.75 L 65.238281 77.722656 L 56.265625 77.722656 Z M 56.265625 68.75 " fill-opacity="1" fill-rule="nonzero"/><path fill="#252340" d="M 51.777344 57.527344 L 69.726562 57.527344 L 69.726562 62.015625 L 51.777344 62.015625 Z M 51.777344 57.527344 " fill-opacity="1" fill-rule="nonzero"/><path fill="#252340" d="M 76.460938 57.527344 L 94.414062 57.527344 L 94.414062 62.015625 L 76.460938 62.015625 Z M 76.460938 57.527344 " fill-opacity="1" fill-rule="nonzero"/><path fill="#252340" d="M 49.53125 93.433594 L 62.996094 93.433594 L 62.996094 97.921875 L 49.53125 97.921875 Z M 49.53125 93.433594 " fill-opacity="1" fill-rule="nonzero"/><path fill="#252340" d="M 49.53125 106.894531 L 62.996094 106.894531 L 62.996094 111.382812 L 49.53125 111.382812 Z M 49.53125 106.894531 " fill-opacity="1" fill-rule="nonzero"/></svg>